<mxfile host="app.diagrams.net" agent="Mozilla/5.0 (Windows NT 10.0; Win64; x64) AppleWebKit/537.36 (KHTML, like Gecko) Chrome/127.0.0.0 Safari/537.36" version="24.7.7">
  <diagram name="Página-1" id="Dk5JTkqU_FH1dXi0wxMd">
    <mxGraphModel dx="1941" dy="468" grid="1" gridSize="10" guides="1" tooltips="1" connect="1" arrows="1" fold="1" page="1" pageScale="1" pageWidth="827" pageHeight="1169" math="0" shadow="0">
      <root>
        <mxCell id="0" />
        <mxCell id="1" parent="0" />
        <mxCell id="LEoPJzPLq4Y0wCzoxTbO-1" value="Clientes" style="rounded=0;whiteSpace=wrap;html=1;" vertex="1" parent="1">
          <mxGeometry x="40" y="70" width="120" height="60" as="geometry" />
        </mxCell>
        <mxCell id="LEoPJzPLq4Y0wCzoxTbO-2" value="" style="endArrow=none;html=1;rounded=0;" edge="1" parent="1">
          <mxGeometry width="50" height="50" relative="1" as="geometry">
            <mxPoint x="160.0048332712314" y="270.92956394014436" as="sourcePoint" />
            <mxPoint x="106.12" y="130" as="targetPoint" />
          </mxGeometry>
        </mxCell>
        <mxCell id="LEoPJzPLq4Y0wCzoxTbO-4" value="" style="endArrow=none;html=1;rounded=0;exitX=0.767;exitY=0.1;exitDx=0;exitDy=0;exitPerimeter=0;" edge="1" parent="1">
          <mxGeometry width="50" height="50" relative="1" as="geometry">
            <mxPoint x="-70.00000000000003" y="226" as="sourcePoint" />
            <mxPoint x="50.97" y="130" as="targetPoint" />
          </mxGeometry>
        </mxCell>
        <mxCell id="LEoPJzPLq4Y0wCzoxTbO-5" value="&lt;u&gt;ID&lt;/u&gt;" style="ellipse;whiteSpace=wrap;html=1;" vertex="1" parent="1">
          <mxGeometry x="-110" y="220" width="90" height="60" as="geometry" />
        </mxCell>
        <mxCell id="LEoPJzPLq4Y0wCzoxTbO-6" value="Dni" style="ellipse;whiteSpace=wrap;html=1;" vertex="1" parent="1">
          <mxGeometry x="145" y="260" width="90" height="60" as="geometry" />
        </mxCell>
        <mxCell id="LEoPJzPLq4Y0wCzoxTbO-7" value="Nombre" style="ellipse;whiteSpace=wrap;html=1;" vertex="1" parent="1">
          <mxGeometry x="-40" y="260" width="90" height="60" as="geometry" />
        </mxCell>
        <mxCell id="LEoPJzPLq4Y0wCzoxTbO-8" value="Fecha de nacimiento" style="ellipse;whiteSpace=wrap;html=1;" vertex="1" parent="1">
          <mxGeometry x="230" y="230" width="90" height="60" as="geometry" />
        </mxCell>
        <mxCell id="LEoPJzPLq4Y0wCzoxTbO-10" value="" style="endArrow=none;html=1;rounded=0;exitX=0.011;exitY=0.4;exitDx=0;exitDy=0;exitPerimeter=0;" edge="1" parent="1" source="LEoPJzPLq4Y0wCzoxTbO-8">
          <mxGeometry width="50" height="50" relative="1" as="geometry">
            <mxPoint x="240" y="180" as="sourcePoint" />
            <mxPoint x="160" y="130" as="targetPoint" />
          </mxGeometry>
        </mxCell>
        <mxCell id="LEoPJzPLq4Y0wCzoxTbO-11" value="Producto" style="rounded=0;whiteSpace=wrap;html=1;" vertex="1" parent="1">
          <mxGeometry x="414" y="60" width="120" height="60" as="geometry" />
        </mxCell>
        <mxCell id="LEoPJzPLq4Y0wCzoxTbO-12" value="Apellido" style="ellipse;whiteSpace=wrap;html=1;" vertex="1" parent="1">
          <mxGeometry x="55" y="230" width="90" height="60" as="geometry" />
        </mxCell>
        <mxCell id="LEoPJzPLq4Y0wCzoxTbO-13" value="" style="endArrow=none;html=1;rounded=0;" edge="1" parent="1">
          <mxGeometry width="50" height="50" relative="1" as="geometry">
            <mxPoint x="80" y="129.76" as="sourcePoint" />
            <mxPoint x="99.27760578065863" y="230.0035500594238" as="targetPoint" />
          </mxGeometry>
        </mxCell>
        <mxCell id="LEoPJzPLq4Y0wCzoxTbO-15" value="Dirección" style="ellipse;whiteSpace=wrap;html=1;" vertex="1" parent="1">
          <mxGeometry x="240" y="160" width="90" height="60" as="geometry" />
        </mxCell>
        <mxCell id="LEoPJzPLq4Y0wCzoxTbO-16" value="" style="endArrow=none;html=1;rounded=0;entryX=0.25;entryY=1;entryDx=0;entryDy=0;" edge="1" parent="1" target="LEoPJzPLq4Y0wCzoxTbO-1">
          <mxGeometry width="50" height="50" relative="1" as="geometry">
            <mxPoint y="260" as="sourcePoint" />
            <mxPoint x="50" y="210" as="targetPoint" />
          </mxGeometry>
        </mxCell>
        <mxCell id="LEoPJzPLq4Y0wCzoxTbO-17" value="" style="endArrow=none;html=1;rounded=0;exitX=0;exitY=0.333;exitDx=0;exitDy=0;exitPerimeter=0;" edge="1" parent="1" source="LEoPJzPLq4Y0wCzoxTbO-15">
          <mxGeometry width="50" height="50" relative="1" as="geometry">
            <mxPoint x="220" y="160" as="sourcePoint" />
            <mxPoint x="160" y="120" as="targetPoint" />
          </mxGeometry>
        </mxCell>
        <mxCell id="LEoPJzPLq4Y0wCzoxTbO-20" value="&lt;u&gt;Codigo&lt;/u&gt;" style="ellipse;whiteSpace=wrap;html=1;" vertex="1" parent="1">
          <mxGeometry x="370" y="180" width="90" height="60" as="geometry" />
        </mxCell>
        <mxCell id="LEoPJzPLq4Y0wCzoxTbO-21" value="Nombre" style="ellipse;whiteSpace=wrap;html=1;" vertex="1" parent="1">
          <mxGeometry x="520" y="180" width="90" height="60" as="geometry" />
        </mxCell>
        <mxCell id="LEoPJzPLq4Y0wCzoxTbO-22" value="" style="endArrow=none;html=1;rounded=0;exitX=0.333;exitY=0.075;exitDx=0;exitDy=0;exitPerimeter=0;" edge="1" parent="1" source="LEoPJzPLq4Y0wCzoxTbO-20">
          <mxGeometry width="50" height="50" relative="1" as="geometry">
            <mxPoint x="413.5" y="170" as="sourcePoint" />
            <mxPoint x="463.5" y="120" as="targetPoint" />
          </mxGeometry>
        </mxCell>
        <mxCell id="LEoPJzPLq4Y0wCzoxTbO-23" value="" style="endArrow=none;html=1;rounded=0;" edge="1" parent="1" source="LEoPJzPLq4Y0wCzoxTbO-21">
          <mxGeometry width="50" height="50" relative="1" as="geometry">
            <mxPoint x="460" y="170" as="sourcePoint" />
            <mxPoint x="510" y="120" as="targetPoint" />
          </mxGeometry>
        </mxCell>
        <mxCell id="LEoPJzPLq4Y0wCzoxTbO-24" value="Proveedor" style="rounded=0;whiteSpace=wrap;html=1;" vertex="1" parent="1">
          <mxGeometry x="370" y="320" width="120" height="60" as="geometry" />
        </mxCell>
      </root>
    </mxGraphModel>
  </diagram>
</mxfile>
